<svg width="376" height="54" viewBox="0 0 376 54" fill="none" xmlns="http://www.w3.org/2000/svg">
<rect x="27" width="349" height="54" fill="url(#paint0_linear_74_7)"/>
<path d="M85.294 21.78V24.21C85.294 26.685 83.749 29.295 81.784 30.285L82.549 31.275C84.694 30.135 86.314 27.21 86.314 24.21V21.78H85.294ZM85.519 21.78V24.21C85.519 27.12 87.094 29.895 89.194 31.02L89.959 30.03C88.039 29.07 86.524 26.595 86.524 24.21V21.78H85.519ZM91.144 20.61V34.17H92.404V20.61H91.144ZM92.104 26.1V27.15H94.624V26.1H92.104ZM99.1978 28.56V31.89H100.428V28.56H99.1978ZM103.533 28.53V31.875H104.748V28.53H103.533ZM95.7778 31.47V32.505H108.063V31.47H95.7778ZM97.2628 21.615V22.62H105.318V24.72H97.3078V28.44H98.5378V25.71H106.548V21.615H97.2628ZM97.3078 27.885V28.905H106.863V27.885H97.3078ZM113.834 21.5795L110.318 34.6406H109.168L112.683 21.5795H113.834ZM118.448 21.255V22.575C118.448 24.6 117.083 26.475 115.028 27.225L115.658 28.215C117.953 27.345 119.483 25.14 119.483 22.575V21.255H118.448ZM118.673 21.255V22.575C118.673 25.065 120.203 27.135 122.468 27.96L123.098 26.985C121.088 26.28 119.693 24.525 119.693 22.575V21.255H118.673ZM116.978 29.46V30.48H124.778V34.17H126.038V29.46H116.978ZM124.778 20.61V28.77H126.038V20.61H124.778ZM138.592 20.61V34.17H139.837V20.61H138.592ZM134.617 22.065V22.275C134.617 25.875 132.802 28.755 128.887 30.645L129.547 31.65C134.077 29.43 135.847 25.995 135.847 22.065H134.617ZM129.502 22.065V23.085H135.157V22.065H129.502Z" fill="black"/>
<circle cx="27" cy="27" r="27" fill="#ABB3FF"/>
<path d="M18.4094 34.2167L17.103 42.4622L9.2572 35.3944L18.4103 34.2167H18.4094Z" fill="#ABB3FF" stroke="white" stroke-width="4" stroke-linecap="round" stroke-linejoin="round"/>
<path d="M27.5628 11.8371L18.4097 20.0826C14.0773 23.9855 14.0773 30.3138 18.4097 34.2167C22.7431 38.1204 29.7679 38.1204 34.0994 34.2167L43.2525 25.9711" fill="#ABB3FF"/>
<path d="M27.5628 11.8371L18.4097 20.0826C14.0773 23.9855 14.0773 30.3138 18.4097 34.2167C22.7431 38.1204 29.7679 38.1204 34.0994 34.2167L43.2525 25.9711" stroke="white" stroke-width="4" stroke-linecap="round" stroke-linejoin="round"/>
<path d="M30.831 23.0267C35.1638 26.9298 40.725 28.2482 43.2524 25.9714C45.7799 23.6945 44.3164 18.6847 39.9836 14.7815C35.6509 10.8784 30.0897 9.56002 27.5622 11.8368C25.0348 14.1137 26.4983 19.1235 30.831 23.0267Z" fill="#ABB3FF" stroke="white" stroke-width="4" stroke-linecap="round" stroke-linejoin="round"/>
<defs>
<linearGradient id="paint0_linear_74_7" x1="35.5" y1="27" x2="390" y2="26.4706" gradientUnits="userSpaceOnUse">
<stop stop-color="#ABB3FF"/>
<stop offset="1" stop-color="#ABB3FF" stop-opacity="0"/>
</linearGradient>
</defs>
</svg>
