<svg width="377" height="54" viewBox="0 0 377 54" fill="none" xmlns="http://www.w3.org/2000/svg">
<rect x="28" width="349" height="54" fill="url(#paint0_linear_74_5)"/>
<path d="M91.913 19.61V33.17H93.158V19.61H91.913ZM87.938 21.065V21.275C87.938 24.875 86.123 27.755 82.208 29.645L82.868 30.65C87.398 28.43 89.168 24.995 89.168 21.065H87.938ZM82.823 21.065V22.085H88.478V21.065H82.823ZM96.4118 28.88V29.915H97.4768C100.012 29.915 101.782 29.84 103.882 29.48L103.747 28.46C101.707 28.82 99.9818 28.88 97.4768 28.88H96.4118ZM96.4118 20.84V29.24H97.6568V21.875H102.727V20.84H96.4118ZM97.3418 24.635V25.64H102.427V24.635H97.3418ZM105.007 19.61V33.17H106.267V19.61H105.007ZM105.967 25.055V26.105H108.487V25.055H105.967ZM116.874 24.2V26.765H118.104V24.2H116.874ZM121.854 24.2V26.765H123.084V24.2H121.854ZM113.844 26.315V27.32H126.099V26.315H113.844ZM119.964 28.34C117.054 28.34 115.314 29.195 115.314 30.74C115.314 32.285 117.054 33.155 119.964 33.155C122.874 33.155 124.614 32.285 124.614 30.74C124.614 29.195 122.874 28.34 119.964 28.34ZM119.964 29.3C122.094 29.3 123.354 29.825 123.354 30.74C123.354 31.67 122.094 32.18 119.964 32.18C117.849 32.18 116.574 31.67 116.574 30.74C116.574 29.825 117.849 29.3 119.964 29.3ZM119.979 19.85C117.024 19.85 115.209 20.795 115.209 22.385C115.209 23.96 117.024 24.89 119.979 24.89C122.919 24.89 124.749 23.96 124.749 22.385C124.749 20.795 122.919 19.85 119.979 19.85ZM119.979 20.825C122.139 20.825 123.474 21.395 123.474 22.385C123.474 23.36 122.139 23.93 119.979 23.93C117.819 23.93 116.484 23.36 116.484 22.385C116.484 21.395 117.819 20.825 119.979 20.825ZM133.163 26.81V29.15H134.393V26.81H133.163ZM127.643 26.15V27.17H139.898V26.15H127.643ZM128.783 20.03V21.05H138.743V20.03H128.783ZM128.843 23.885V24.905H138.683V23.885H128.843ZM130.838 20.48V24.545H132.083V20.48H130.838ZM135.458 20.48V24.545H136.688V20.48H135.458ZM129.143 28.745V32.99H138.398V28.745H129.143ZM137.183 29.735V31.985H130.373V29.735H137.183Z" fill="black"/>
<circle cx="27" cy="27" r="27" fill="#C4EAFF"/>
<path d="M7.71423 26.2286C7.71423 36.454 16.3484 44.7429 26.9999 44.7429C37.6514 44.7429 46.2857 36.454 46.2857 26.2286C46.2857 16.0031 37.6514 7.71429 26.9999 7.71429" fill="#C4EAFF"/>
<path d="M7.71423 26.2286C7.71423 36.454 16.3484 44.7429 26.9999 44.7429C37.6514 44.7429 46.2857 36.454 46.2857 26.2286C46.2857 16.0031 37.6514 7.71429 26.9999 7.71429" stroke="white" stroke-width="4" stroke-linecap="round" stroke-linejoin="round"/>
<defs>
<linearGradient id="paint0_linear_74_5" x1="28" y1="27" x2="415.5" y2="26.9723" gradientUnits="userSpaceOnUse">
<stop stop-color="#C3EAFF"/>
<stop offset="1" stop-color="#C3EAFF" stop-opacity="0"/>
</linearGradient>
</defs>
</svg>
