<svg width="377" height="54" viewBox="0 0 377 54" fill="none" xmlns="http://www.w3.org/2000/svg">
<rect x="28" width="349" height="54" fill="url(#paint0_linear_74_8)"/>
<path d="M87.2835 21.54V22.575C87.2835 24.885 84.7335 26.955 82.3485 27.405L82.9035 28.44C85.6185 27.825 88.3635 25.53 88.3635 22.575V21.54H87.2835ZM87.5085 21.54V22.575C87.5085 25.545 90.2685 27.825 92.9685 28.44L93.5235 27.405C91.1535 26.955 88.5885 24.9 88.5885 22.575V21.54H87.5085ZM81.8535 31.32V32.34H94.1385V31.32H81.8535ZM97.2273 27.915V28.92H106.542V27.915H97.2273ZM95.6523 31.395V32.43H107.937V31.395H95.6523ZM97.2273 21.765V28.23H98.4873V22.785H106.392V21.765H97.2273ZM98.0823 24.795V25.785H106.107V24.795H98.0823ZM109.886 29.805V30.84H110.786C112.496 30.84 114.026 30.78 115.931 30.45L115.826 29.43C113.966 29.745 112.436 29.805 110.786 29.805H109.886ZM109.856 22.095V23.115H113.501V25.815H109.886V30.225H111.101V26.82H114.701V22.095H109.856ZM119.756 20.61V34.17H120.956V20.61H119.756ZM115.346 25.47V26.505H117.536V25.47H115.346ZM117.026 20.94V33.465H118.181V20.94H117.026ZM128.68 21.54V22.575C128.68 24.885 126.13 26.955 123.745 27.405L124.3 28.44C127.015 27.825 129.76 25.53 129.76 22.575V21.54H128.68ZM128.905 21.54V22.575C128.905 25.545 131.665 27.825 134.365 28.44L134.92 27.405C132.55 26.955 129.985 24.9 129.985 22.575V21.54H128.905ZM123.25 31.32V32.34H135.535V31.32H123.25ZM137.019 22.92V23.94H143.739V22.92H137.019ZM140.379 24.84C138.699 24.84 137.469 26.115 137.469 27.945C137.469 29.76 138.699 31.035 140.379 31.035C142.074 31.035 143.304 29.76 143.304 27.945C143.304 26.115 142.074 24.84 140.379 24.84ZM140.379 25.905C141.429 25.905 142.194 26.745 142.194 27.945C142.194 29.145 141.429 29.985 140.379 29.985C139.344 29.985 138.594 29.145 138.594 27.945C138.594 26.745 139.344 25.905 140.379 25.905ZM147.324 20.61V34.17H148.524V20.61H147.324ZM145.164 26.31V27.345H147.729V26.31H145.164ZM144.429 20.91V33.51H145.599V20.91H144.429ZM139.779 21V23.55H141.009V21H139.779ZM150.848 31.38V32.415H163.133V31.38H150.848ZM156.308 28.095V31.725H157.538V28.095H156.308ZM156.278 21.51V22.56C156.278 24.795 153.713 26.79 151.328 27.225L151.853 28.26C154.583 27.69 157.358 25.455 157.358 22.56V21.51H156.278ZM156.503 21.51V22.56C156.503 25.455 159.278 27.69 162.008 28.26L162.548 27.225C160.163 26.79 157.583 24.81 157.583 22.56V21.51H156.503Z" fill="black"/>
<circle cx="27" cy="27" r="27" fill="#FFEAA2"/>
<path d="M27.0001 44.7429C36.7994 44.7429 44.7429 37.1448 44.7429 27.7714C44.7429 18.3981 36.7994 10.8 27.0001 10.8C17.2007 10.8 9.2572 18.3981 9.2572 27.7714C9.2572 37.1448 17.2007 44.7429 27.0001 44.7429Z" fill="#FFEAA2" stroke="white" stroke-width="4" stroke-linejoin="round"/>
<path d="M27 37.0286C33.0612 37.0286 35.4857 33.7613 35.4857 33.7613H18.5143C18.5143 33.7613 20.9388 37.0286 27 37.0286ZM35.4857 23.1429V26.4101V23.1429ZM18.5143 23.1429V26.4101V23.1429Z" fill="#FFEAA2"/>
<path d="M35.4857 23.1429V26.4101M18.5143 23.1429V26.4101M27 37.0286C33.0612 37.0286 35.4857 33.7613 35.4857 33.7613H18.5143C18.5143 33.7613 20.9388 37.0286 27 37.0286Z" stroke="white" stroke-width="4" stroke-linecap="round" stroke-linejoin="round"/>
<defs>
<linearGradient id="paint0_linear_74_8" x1="49" y1="26.4705" x2="403.503" y2="29.3039" gradientUnits="userSpaceOnUse">
<stop stop-color="#FFEAA1"/>
<stop offset="1" stop-color="#FFEAA1" stop-opacity="0"/>
</linearGradient>
</defs>
</svg>
