<svg width="376" height="54" viewBox="0 0 376 54" fill="none" xmlns="http://www.w3.org/2000/svg">
<rect x="27" width="349" height="54" fill="url(#paint0_linear_74_4)"/>
<path d="M88.4568 23.815V24.835H92.2818V23.815H88.4568ZM88.4568 26.59V27.625H92.2818V26.59H88.4568ZM82.7118 22.435V28.825H88.8318V22.435H87.6168V24.595H83.9418V22.435H82.7118ZM83.9418 25.6H87.6168V27.82H83.9418V25.6ZM91.9518 21.61V29.815H93.1968V21.61H91.9518ZM88.7418 30.085C85.9368 30.085 84.2118 31.03 84.2118 32.62C84.2118 34.225 85.9368 35.14 88.7418 35.14C91.5318 35.14 93.2568 34.225 93.2568 32.62C93.2568 31.03 91.5318 30.085 88.7418 30.085ZM88.7418 31.075C90.7818 31.075 92.0268 31.63 92.0268 32.62C92.0268 33.595 90.7818 34.165 88.7418 34.165C86.7018 34.165 85.4568 33.595 85.4568 32.62C85.4568 31.63 86.7018 31.075 88.7418 31.075ZM99.6906 28.435V31.45H100.936V28.435H99.6906ZM105.706 21.61V31.93H106.951V21.61H105.706ZM97.6956 33.85V34.87H107.281V33.85H97.6956ZM97.6956 30.925V34.135H98.9406V30.925H97.6956ZM95.9406 28.9C98.4006 28.9 101.686 28.855 104.611 28.39L104.521 27.475C101.641 27.85 98.2806 27.88 95.7756 27.88L95.9406 28.9ZM102.946 29.62V30.535H106.021V29.62H102.946ZM100.186 22.165C98.1906 22.165 96.8406 23.095 96.8406 24.52C96.8406 25.96 98.1906 26.89 100.186 26.89C102.166 26.89 103.516 25.96 103.516 24.52C103.516 23.095 102.166 22.165 100.186 22.165ZM100.186 23.095C101.446 23.095 102.331 23.65 102.331 24.52C102.331 25.39 101.446 25.945 100.186 25.945C98.9106 25.945 98.0256 25.39 98.0256 24.52C98.0256 23.65 98.9106 23.095 100.186 23.095ZM119.489 21.595V35.185H120.734V21.595H119.489ZM110.414 22.75V31.915H116.804V22.75H115.559V26.335H111.644V22.75H110.414ZM111.644 27.325H115.559V30.895H111.644V27.325Z" fill="black"/>
<ellipse cx="27" cy="27" rx="26.5415" ry="26.5415" transform="rotate(-0.998504 27 27)" fill="#FFCFCF"/>
<path d="M27.2998 13.6499C16.1199 13.6499 9.40813 19.959 7.80915 21.6513C7.69435 21.7753 7.61954 21.9276 7.5935 22.0902C7.56746 22.2529 7.59129 22.4191 7.66217 22.5695L14.938 38.835C15.1724 39.3595 15.8487 39.5774 16.395 39.3324C18.1866 38.5274 22.2109 37.024 27.2998 37.024C32.3887 37.024 36.413 38.5274 38.2046 39.3333C38.7509 39.5774 39.4272 39.3595 39.6616 38.835L46.9374 22.5695C47.0083 22.4191 47.0321 22.2529 47.0061 22.0902C46.9801 21.9276 46.9053 21.7753 46.7905 21.6513C45.1915 19.959 38.4797 13.6499 27.2998 13.6499ZM23.3272 26.7403H31.2724H23.3272ZM27.2998 22.9995V30.4792V22.9995Z" fill="#FFCFCF"/>
<path d="M23.3272 26.7403H31.2724M27.2998 22.9995V30.4792M27.2998 13.6499C16.1199 13.6499 9.40813 19.959 7.80915 21.6513C7.69435 21.7753 7.61954 21.9276 7.5935 22.0902C7.56746 22.2529 7.59129 22.4191 7.66217 22.5695L14.938 38.835C15.1724 39.3595 15.8487 39.5774 16.395 39.3324C18.1866 38.5274 22.2109 37.024 27.2998 37.024C32.3887 37.024 36.413 38.5274 38.2046 39.3333C38.7509 39.5774 39.4272 39.3595 39.6616 38.835L46.9374 22.5695C47.0083 22.4191 47.0321 22.2529 47.0061 22.0902C46.9801 21.9276 46.9053 21.7753 46.7905 21.6513C45.1915 19.959 38.4797 13.6499 27.2998 13.6499Z" stroke="white" stroke-width="4" stroke-linecap="round" stroke-linejoin="round"/>
<defs>
<linearGradient id="paint0_linear_74_4" x1="27" y1="36.5" x2="414.5" y2="27" gradientUnits="userSpaceOnUse">
<stop stop-color="#FFCFCF"/>
<stop offset="1" stop-color="#FFCFCF" stop-opacity="0"/>
</linearGradient>
</defs>
</svg>
