<svg width="376" height="54" viewBox="0 0 376 54" fill="none" xmlns="http://www.w3.org/2000/svg">
<rect x="27" width="349" height="54" fill="url(#paint0_linear_74_6)"/>
<path d="M85.6536 29.695V31.9H86.8986V29.695H85.6536ZM91.3536 21.61V35.17H92.5986V21.61H91.3536ZM92.1936 27.37V28.42H94.6986V27.37H92.1936ZM82.1586 32.59C84.5286 32.59 87.7086 32.575 90.6336 32.05L90.5286 31.12C87.7236 31.525 84.4086 31.555 81.9786 31.555L82.1586 32.59ZM82.2036 23.245V24.25H90.3186V23.245H82.2036ZM86.2686 25.045C84.3786 25.045 83.0886 26.035 83.0886 27.55C83.0886 29.08 84.3786 30.055 86.2686 30.055C88.1586 30.055 89.4636 29.08 89.4636 27.55C89.4636 26.035 88.1586 25.045 86.2686 25.045ZM86.2686 26.005C87.4836 26.005 88.2936 26.62 88.2936 27.55C88.2936 28.48 87.4836 29.095 86.2686 29.095C85.0536 29.095 84.2586 28.48 84.2586 27.55C84.2586 26.62 85.0536 26.005 86.2686 26.005ZM85.6536 21.625V23.92H86.8986V21.625H85.6536ZM99.2724 23.065V24.16C99.2724 26.095 97.9224 27.85 95.8824 28.57L96.5124 29.56C98.7924 28.735 100.292 26.65 100.292 24.16V23.065H99.2724ZM99.4974 23.065V24.145C99.4974 26.455 100.937 28.39 103.202 29.14L103.802 28.165C101.807 27.505 100.517 25.915 100.517 24.145V23.065H99.4974ZM96.2574 22.615V23.635H103.502V22.615H96.2574ZM105.212 21.61V29.785H106.457V21.61H105.212ZM106.112 25.045V26.095H108.467V25.045H106.112ZM102.137 30.145C99.3774 30.145 97.6824 31.06 97.6824 32.635C97.6824 34.225 99.3774 35.14 102.137 35.14C104.897 35.14 106.592 34.225 106.592 32.635C106.592 31.06 104.897 30.145 102.137 30.145ZM102.137 31.15C104.147 31.15 105.377 31.69 105.377 32.635C105.377 33.595 104.147 34.165 102.137 34.165C100.127 34.165 98.8974 33.595 98.8974 32.635C98.8974 31.69 100.127 31.15 102.137 31.15ZM119.596 21.61V28.63H120.841V21.61H119.596ZM112.081 29.32V30.295H119.626V31.645H112.111V34.435H113.326V32.575H120.856V29.32H112.081ZM112.111 34.03V35.02H121.306V34.03H112.111ZM113.266 22V23.035C113.266 25 111.871 26.8 109.831 27.52L110.446 28.51C112.741 27.67 114.301 25.54 114.301 23.035V22H113.266ZM113.491 22V23.035C113.491 25.465 115.051 27.46 117.331 28.24L117.946 27.265C115.936 26.605 114.511 24.91 114.511 23.035V22H113.491ZM130.774 26.2V28.765H132.004V26.2H130.774ZM135.754 26.2V28.765H136.984V26.2H135.754ZM127.744 28.315V29.32H139.999V28.315H127.744ZM133.864 30.34C130.954 30.34 129.214 31.195 129.214 32.74C129.214 34.285 130.954 35.155 133.864 35.155C136.774 35.155 138.514 34.285 138.514 32.74C138.514 31.195 136.774 30.34 133.864 30.34ZM133.864 31.3C135.994 31.3 137.254 31.825 137.254 32.74C137.254 33.67 135.994 34.18 133.864 34.18C131.749 34.18 130.474 33.67 130.474 32.74C130.474 31.825 131.749 31.3 133.864 31.3ZM133.879 21.85C130.924 21.85 129.109 22.795 129.109 24.385C129.109 25.96 130.924 26.89 133.879 26.89C136.819 26.89 138.649 25.96 138.649 24.385C138.649 22.795 136.819 21.85 133.879 21.85ZM133.879 22.825C136.039 22.825 137.374 23.395 137.374 24.385C137.374 25.36 136.039 25.93 133.879 25.93C131.719 25.93 130.384 25.36 130.384 24.385C130.384 23.395 131.719 22.825 133.879 22.825ZM147.063 28.81V31.15H148.293V28.81H147.063ZM141.543 28.15V29.17H153.798V28.15H141.543ZM142.683 22.03V23.05H152.643V22.03H142.683ZM142.743 25.885V26.905H152.583V25.885H142.743ZM144.738 22.48V26.545H145.983V22.48H144.738ZM149.358 22.48V26.545H150.588V22.48H149.358ZM143.043 30.745V34.99H152.298V30.745H143.043ZM151.083 31.735V33.985H144.273V31.735H151.083Z" fill="black"/>
<circle cx="27" cy="27" r="27" fill="#D9BBFF"/>
<path d="M16.3942 13.9618C13.6714 17.6355 11.053 18.6872 9.2572 18.0284C9.74162 19.5192 13.2209 21.5867 15.4369 22.7766C16.3915 23.2889 16.6707 24.4561 16.0061 25.2645C14.7901 26.7448 13.1067 28.8366 12.8257 29.4149C6.5398 39.8173 20.3927 43.7684 27.0996 43.2414C46.8547 41.6896 46.1509 27.628 43.1578 22.095C35.9744 33.4766 24.8863 26.9058 25.3154 24.535C25.7445 22.1641 28.6983 22.6359 29.776 18.8417C31.5718 11.3331 20.2963 7.7797 16.3942 13.9618Z" fill="#D9BBFF" stroke="white" stroke-width="4" stroke-linecap="round" stroke-linejoin="round"/>
<defs>
<linearGradient id="paint0_linear_74_6" x1="27" y1="27" x2="395.001" y2="37.5367" gradientUnits="userSpaceOnUse">
<stop stop-color="#D9BBFF"/>
<stop offset="0.96875" stop-color="#D9BBFF" stop-opacity="0"/>
</linearGradient>
</defs>
</svg>
